<?xml version="1.0" standalone="no"?>
<!DOCTYPE svg PUBLIC "-//W3C//DTD SVG 20010904//EN"
 "http://www.w3.org/TR/2001/REC-SVG-20010904/DTD/svg10.dtd">
<svg version="1.0" xmlns="http://www.w3.org/2000/svg"
 width="50.000000pt" height="28.000000pt" viewBox="0 0 50.000000 28.000000"
 preserveAspectRatio="xMidYMid meet">

<g transform="translate(0.000000,28.000000) scale(0.100000,-0.100000)"
fill="#000000" stroke="none">
<path d="M0 140 l0 -140 250 0 250 0 0 140 0 140 -102 -1 c-72 0 -97 -3 -83
-10 14 -6 5 -7 -30 -4 -47 5 -147 -5 -205 -20 -24 -6 -24 -6 3 10 15 8 27 18
27 20 0 3 -25 5 -55 5 l-55 0 0 -140z"/>
</g>
</svg>
